<?xml version="1.0" encoding="utf-8"?>
<!-- Generator: Adobe Illustrator 18.0.0, SVG Export Plug-In . SVG Version: 6.00 Build 0)  -->
<!DOCTYPE svg PUBLIC "-//W3C//DTD SVG 1.1//EN" "http://www.w3.org/Graphics/SVG/1.1/DTD/svg11.dtd">
<svg version="1.1" id="Layer_1" xmlns="http://www.w3.org/2000/svg" xmlns:xlink="http://www.w3.org/1999/xlink" x="0px" y="0px"
	 viewBox="0 0 100 100" enable-background="new 0 0 100 100" xml:space="preserve">
<g>
	<path fill="#07ADEA" d="M73.2,48.8c-3.8-0.8-1.9-2.8-1.9-2.8s3.7-6.1-0.8-10.5c-5.5-5.5-18.8,0.7-18.8,0.7c-5.1,1.6-3.8-0.7-3-4.6
		c0-4.6-1.6-12.4-15.1-7.8C20,28.5,8.3,44.8,8.3,44.8c-8.1,10.8-7,19.2-7,19.2c2,18.4,21.6,23.5,36.8,24.7
		c16,1.2,37.7-5.5,44.2-19.4C88.8,55.2,76.9,49.6,73.2,48.8z M39.3,83.3c-15.9,0.7-28.8-7.2-28.8-17.8s12.9-19.2,28.8-19.8
		c15.9-0.8,28.8,5.8,28.8,16.4S55.2,82.6,39.3,83.3z"/>
	<path fill="#07ADEA" d="M36.1,52.6c-16,1.8-14.1,16.8-14.1,16.8s-0.1,4.8,4.3,7.2c9.3,5.1,19,2,23.8-4.3
		C55,66.1,52.1,50.8,36.1,52.6z M32,73.7c-3,0.3-5.4-1.3-5.4-3.8s2.1-5.1,5.1-5.4c3.5-0.3,5.7,1.7,5.7,4.2C37.5,71,35,73.3,32,73.7z
		 M41.5,65.6c-1,0.8-2.2,0.7-2.8-0.2s-0.3-2.3,0.7-3c1.2-0.9,2.4-0.7,3,0.2C42.8,63.5,42.5,64.8,41.5,65.6z"/>
	<path fill="#07ADEA" d="M80.9,42.3c1.3,0,2.4-1,2.6-2.2c0-0.1,0.1-0.2,0.1-0.3c1.9-17.5-14.4-14.5-14.4-14.5
		c-1.4,0-2.6,1.1-2.6,2.6c0,1.5,1.2,2.6,2.6,2.6c11.8-2.6,9.2,9.1,9.2,9.1C78.3,41.2,79.4,42.3,80.9,42.3z"/>
	<path fill="#07ADEA" d="M79,11.7c-5.7-1.3-11.4-0.2-13.1,0.1c-0.2,0-0.2,0.1-0.3,0.1c-0.1,0-0.1,0.1-0.1,0.1
		c-1.6,0.4-2.8,1.9-2.8,3.7c0,2.1,1.7,3.8,3.8,3.8c0,0,2.1-0.3,3.4-0.8c1.4-0.5,13.1-0.4,18.9,9.4C92,35.2,90.2,40,90,40.8
		c0,0-0.8,1.8-0.8,3.7c0,2.1,1.7,3.5,3.8,3.5c1.8,0,3.2-0.2,3.7-3.2l0,0C103,23.9,89.2,14.1,79,11.7z"/>
</g>
</svg>
