<?xml version="1.0" encoding="utf-8"?>
<!-- Generator: Adobe Illustrator 18.0.0, SVG Export Plug-In . SVG Version: 6.00 Build 0)  -->
<!DOCTYPE svg PUBLIC "-//W3C//DTD SVG 1.1//EN" "http://www.w3.org/Graphics/SVG/1.1/DTD/svg11.dtd">
<svg version="1.1" id="Layer_1" xmlns="http://www.w3.org/2000/svg" xmlns:xlink="http://www.w3.org/1999/xlink" x="0px" y="0px"
	 viewBox="0 0 100 100" enable-background="new 0 0 100 100" xml:space="preserve">
<g>
	<path fill="#07ADEA" d="M66.9,36.2c1.1,0,2.2,0.1,3.2,0.2c-2.9-13.5-17.3-23.5-33.8-23.5c-18.5,0-33.5,12.5-33.5,28.5
		c0,9.2,5.1,16.8,13.5,22.6l-3.4,10.1l11.6-5.9c4.2,0.8,7.5,1.7,11.8,1.7c1,0,2.1-0.1,3.2-0.2c-0.7-2.2-1-4.6-1-7
		C38.3,48,51,36.2,66.9,36.2z M48.8,27c2.5,0,4.2,1.6,4.2,4.2c0,2.5-1.7,4.2-4.2,4.2c-2.5,0-5-1.7-5-4.2S46.3,27,48.8,27z
		 M25.4,35.5c-2.5,0-5.1-1.7-5.1-4.2s2.5-4.2,5-4.2s4.2,1.6,4.2,4.2C29.5,33.8,27.9,35.5,25.4,35.5z"/>
	<path fill="#07ADEA" d="M97.5,62.3c0-13.4-13.4-24.4-28.5-24.4c-16,0-28.5,11-28.5,24.3C40.5,75.7,53,86.6,69,86.6
		c3.3,0,6.7-0.8,10.1-1.7l9.2,5.1l-2.5-8.4C92.5,76.6,97.5,69.9,97.5,62.3z M59.8,58.1c-1.7,0-3.3-1.7-3.3-3.3
		c0-1.7,1.7-3.3,3.3-3.3c2.5,0,4.2,1.7,4.2,3.3C64,56.5,62.3,58.1,59.8,58.1z M78.2,58.1c-1.7,0-3.3-1.7-3.3-3.3
		c0-1.7,1.7-3.3,3.3-3.3c2.5,0,4.2,1.7,4.2,3.3C82.4,56.5,80.8,58.1,78.2,58.1z"/>
</g>
</svg>
