<?xml version="1.0" encoding="utf-8"?>
<!-- Generator: Adobe Illustrator 18.0.0, SVG Export Plug-In . SVG Version: 6.00 Build 0)  -->
<!DOCTYPE svg PUBLIC "-//W3C//DTD SVG 1.1//EN" "http://www.w3.org/Graphics/SVG/1.1/DTD/svg11.dtd">
<svg version="1.1" id="图层_1" xmlns="http://www.w3.org/2000/svg" xmlns:xlink="http://www.w3.org/1999/xlink" x="0px" y="0px"
	 viewBox="0 40 100 18.8" enable-background="new 0 40 100 18.8" xml:space="preserve">
<path d="M31.8,56.4h-4.2l-1.3,1.9c-0.2,0.4-0.5,0.5-0.9,0.5c-0.3,0-0.5-0.1-0.8-0.3c-0.2-0.2-0.4-0.5-0.4-0.8c0-0.2,0-0.4,0.2-0.6
	l3.8-6.1c0.5-0.8,1-1.2,1.4-1.2c0.3,0,0.6,0.1,0.8,0.4c0.2,0.1,0.4,0.4,0.6,0.8l3.7,6.1c0.1,0.2,0.2,0.4,0.2,0.6
	c0,0.3-0.1,0.5-0.3,0.8c-0.2,0.2-0.5,0.3-0.8,0.3c-0.4,0-0.7-0.2-0.9-0.5L31.8,56.4z M28.7,54.5h2l-1-1.6L28.7,54.5z"/>
<path d="M44.5,51.9h-3.2v5.8c0,0.3-0.1,0.6-0.3,0.8s-0.5,0.3-0.8,0.3s-0.5-0.1-0.7-0.3s-0.3-0.4-0.3-0.8v-5.8H36
	c-0.3,0-0.6-0.1-0.8-0.3s-0.3-0.5-0.3-0.8s0.1-0.5,0.3-0.8s0.5-0.3,0.8-0.3h8.5c0.3,0,0.6,0.1,0.8,0.3s0.3,0.5,0.3,0.8
	s-0.1,0.5-0.3,0.8S44.9,51.9,44.5,51.9z"/>
<path d="M53.6,56.4h-4.2l-1.3,1.9c-0.2,0.3-0.5,0.5-0.9,0.5c-0.3,0-0.5-0.1-0.8-0.3C46.2,58.3,46,58,46,57.7c0-0.2,0-0.4,0.2-0.6
	L50,51c0.5-0.8,1-1.2,1.4-1.2c0.3,0,0.6,0.1,0.8,0.4c0.2,0.1,0.4,0.4,0.6,0.8l3.8,6.1c0.1,0.2,0.2,0.4,0.2,0.6
	c0,0.3-0.1,0.5-0.3,0.8c-0.2,0.2-0.5,0.3-0.8,0.3c-0.4,0-0.7-0.2-0.9-0.5L53.6,56.4z M50.5,54.5h2l-1-1.6L50.5,54.5z"/>
<path d="M76.2,56.8c0,0.5-0.2,1-0.5,1.2c-0.3,0.3-0.7,0.4-1.2,0.4s-0.8-0.1-1.2-0.4s-0.5-0.7-0.5-1.2v-5l-3.7,5.9
	c-0.4,0.7-0.9,1-1.5,1c-0.5,0-1-0.4-1.4-1l-3.7-5.9v5c0,0.5-0.2,1-0.5,1.2c-0.3,0.3-0.7,0.4-1.2,0.4S60,58.3,59.6,58
	c-0.3-0.3-0.5-0.7-0.5-1.2v-11c0-0.6,0.2-1.1,0.5-1.4c0.3-0.4,0.7-0.5,1.1-0.5c0.6,0,1.2,0.4,1.6,1.1l5.3,8.6l5.5-8.6
	c0.4-0.7,1-1.1,1.6-1.1c0.4,0,0.8,0.2,1.1,0.5c0.3,0.4,0.5,0.8,0.5,1.4L76.2,56.8L76.2,56.8z"/>
<path d="M85.2,56.4H81l-1.3,1.9c-0.2,0.3-0.5,0.5-0.9,0.5c-0.3,0-0.5-0.1-0.8-0.3c-0.2-0.2-0.4-0.5-0.4-0.8c0-0.2,0-0.4,0.2-0.6
	l3.8-6.1c0.5-0.8,1-1.2,1.4-1.2c0.3,0,0.6,0.1,0.8,0.4c0.2,0.1,0.4,0.4,0.6,0.8l3.7,6.1c0.1,0.2,0.2,0.4,0.2,0.6
	c0,0.3-0.1,0.5-0.3,0.8c-0.2,0.2-0.5,0.3-0.8,0.3c-0.4,0-0.7-0.2-0.9-0.5L85.2,56.4z M82.1,54.5h2l-1-1.6L82.1,54.5z"/>
<path d="M100,57.6c0,0.8-0.3,1.2-0.8,1.2c-0.3,0-0.6-0.1-0.8-0.4l-6.9-5.5v4.6c0,0.3-0.1,0.6-0.3,0.8c-0.2,0.2-0.5,0.3-0.8,0.3
	s-0.5-0.1-0.7-0.3s-0.3-0.4-0.3-0.8v-6.8c0-0.8,0.3-1.2,0.9-1.2c0.3,0,0.6,0.1,0.9,0.4l6.8,5.5v-4.6c0-0.3,0.1-0.6,0.3-0.8
	c0.2-0.2,0.5-0.3,0.7-0.3s0.5,0.1,0.7,0.3s0.3,0.4,0.3,0.8L100,57.6L100,57.6L100,57.6z"/>
<g>
	<path fill="#1F9CFF" d="M13.6,47.4c-2.5-2.2-5.8-3.1-9.9-3.1H0v14.4h15.7c1.1,0,1.7-0.7,1.7-1.9C17.4,53,16.1,49.7,13.6,47.4z
		 M3.3,55.3v-7.6H5c2,0,4,0.5,5.7,1.9c0.9,0.7,1.7,1.6,2.3,2.5c0.7,1.1,1,2.2,1.1,3.2L3.3,55.3L3.3,55.3z"/>
	<path fill="#1F9CFF" d="M19.6,56.7c0.1-4.4-1.4-8.2-4.3-10.8c-2.8-2.5-6.5-3.4-11-3.4H0V40h4.9c5.3,0,9.5,1.1,12.8,4s5,7.4,5,12.6
		c0,1.5,0,2.2-1.5,2.2C19.5,58.7,19.6,57.3,19.6,56.7z"/>
</g>
</svg>
